#!OML:ASF I:\Actors\actors\Patient Classification 2\Patient 1\Session 1\actor1.ASF
:FULLY-SPECIFIED
:DEGREES
360
root 1.90624 17.6584 3.53621 23.2507 -30.0203 -8.98724
lowerback 31.3457 -0.891345 -2.52501
upperback 6.17538 -2.40592 -2.30218
thorax -10.2006 -1.14588 -0.215523
lowerneck -17.5351 8.60654 8.84801
upperneck 17.2283 10.9147 -7.16544
head 9.19366 4.93866 -2.4043
rclavicle -5.24792e-014 2.06736e-014
rhumerus -42.1872 38.0421 -103.931
rradius 98.3116
rwrist 0.924532
rhand -20.0373 -68.9458
rfingers 7.12502
rthumb 6.30379 -261.168
lclavicle -5.24792e-014 2.06736e-014
lhumerus 10.9561 3.34577 83.0041
lradius 73.8066
lwrist 80.6793
lhand -44.6519 -17.6453
lfingers 7.12502
lthumb -17.4487 11.5916
rfemur -19.5097 16.5513 6.4966
rtibia -18.2361
rfoot 5.3823 -17.1867
rtoes -3.08046
lfemur 7.99024 14.4483 -18.4485
ltibia -46.7805
lfoot 19.4654 19.4212
ltoes -1.98078
361
root 1.90405 17.653 3.5317 23.3686 -30.2054 -9.34589
lowerback 31.3673 -0.817788 -2.54926
upperback 6.36297 -2.31515 -2.24825
thorax -9.99128 -1.10985 -0.175685
lowerneck -17.7512 8.62352 8.80973
upperneck 16.5201 10.8911 -7.15956
head 8.98294 4.93309 -2.3964
rclavicle 1.74931e-014 9.54166e-015
rhumerus -41.8818 38.5032 -103.793
rradius 98.7825
rwrist 1.28265
rhand -20.2423 -68.4165
rfingers 7.12502
rthumb 6.10591 -261.692
lclavicle 1.74931e-014 9.54166e-015
lhumerus 10.4837 2.86281 82.6164
lradius 75.9865
lwrist 78.5589
lhand -45.7427 -15.3973
lfingers 7.12502
lthumb -18.4982 13.7432
rfemur -19.5389 16.5986 6.8799
rtibia -18.1777
rfoot 5.58863 -16.8696
rtoes -3.05017
lfemur 8.18932 14.7302 -18.1562
ltibia -46.9332
lfoot 19.4511 19.3996
ltoes -2.06333
362
root 1.89602 17.648 3.52329 23.568 -30.7946 -9.74353
lowerback 31.3674 -0.485007 -2.81918
upperback 6.45821 -1.98456 -2.23046
thorax -9.8738 -0.956605 -0.126457
lowerneck -17.7406 8.51059 8.57654
upperneck 15.9276 10.7034 -6.86125
head 8.73016 4.87199 -2.29223
rclavicle -3.33958e-014 -2.70347e-014
rhumerus -42.182 38.3435 -103.935
rradius 99.9312
rwrist 1.67569
rhand -20.4574 -67.7898
rfingers 7.12502
rthumb 5.89827 -262.312
lclavicle -3.33958e-014 -2.70347e-014
lhumerus 10.2059 2.40962 82.4818
lradius 77.6657
lwrist 77.6547
lhand -45.4298 -14.7537
lfingers 7.12502
lthumb -18.1972 14.4151
rfemur -19.7789 16.8908 7.15036
rtibia -18.0685
rfoot 5.85921 -16.4336
rtoes -3.07516
lfemur 8.42138 15.327 -17.9559
ltibia -47.1386
lfoot 19.5012 19.4356
ltoes -2.31734
363
root 1.91364 17.6338 3.52063 23.884 -30.6316 -9.62699
lowerback 31.0053 -0.652744 -2.45245
upperback 6.39225 -2.07031 -2.29167
thorax -9.78994 -1.00508 -0.38006
lowerneck -17.611 8.35681 8.22326
upperneck 15.8083 10.5006 -6.43557
head 8.60456 4.80382 -2.13019
rclavicle -5.08889e-014 2.38542e-014
rhumerus -42.6432 37.8727 -104.095
rradius 100.947
rwrist 1.92468
rhand -20.5978 -67.6627
rfingers 7.12502
rthumb 5.76264 -262.436
lclavicle -5.08889e-014 2.38542e-014
lhumerus 10.2304 2.13579 82.7651
lradius 78.4279
lwrist 77.4035
lhand -45.1617 -14.7547
lfingers 7.12502
lthumb -17.9392 14.4379
rfemur -20.2075 16.4394 7.01372
rtibia -18.0258
rfoot 5.8885 -16.2925
rtoes -2.71044
lfemur 8.03318 14.8483 -18.082
ltibia -47.3265
lfoot 19.6834 19.6671
ltoes -2.28667
364
root 1.90637 17.6274 3.51039 24.1831 -31.2337 -9.72991
lowerback 30.6756 -0.291877 -2.78816
upperback 6.24518 -1.71812 -2.34615
thorax -9.79262 -0.834476 -0.384359
lowerneck -17.3254 8.23185 8.18951
upperneck 16.1038 10.3417 -6.28412
head 8.63215 4.74423 -2.10462
rclavicle 1.11319e-014 3.81667e-014
rhumerus -42.978 37.3105 -104.178
rradius 101.436
rwrist 1.8913
rhand -20.8252 -67.901
rfingers 7.12502
rthumb 5.54309 -262.191
lclavicle 1.11319e-014 3.81667e-014
lhumerus 10.478 1.95396 83.2862
lradius 78.2977
lwrist 77.0617
lhand -45.2952 -14.7339
lfingers 7.12502
lthumb -18.0677 14.447
rfemur -20.6378 16.547 6.97136
rtibia -18.09
rfoot 6.30881 -16.0156
rtoes -2.74471
lfemur 7.92096 15.219 -18.1887
ltibia -47.4381
lfoot 19.6916 19.8336
ltoes -2.41641
365
root 1.90469 17.6239 3.50806 24.2308 -31.4943 -9.59621
lowerback 30.5151 -0.105593 -2.91003
upperback 6.0432 -1.52945 -2.44379
thorax -9.94818 -0.741135 -0.497416
lowerneck -16.9133 8.15048 8.58496
upperneck 16.6478 10.2531 -6.61129
head 8.77973 4.69481 -2.29877
rclavicle -5.40694e-014 1.74931e-014
rhumerus -43.1842 36.8135 -104.146
rradius 101.436
rwrist 1.64654
rhand -20.9186 -68.1324
rfingers 7.12502
rthumb 5.45298 -261.958
lclavicle -5.40694e-014 1.74931e-014
lhumerus 10.6532 1.78257 83.7771
lradius 77.7089
lwrist 76.7425
lhand -45.519 -14.9693
lfingers 7.12502
lthumb -18.283 14.1915
rfemur -20.7344 16.4557 6.84956
rtibia -18.2608
rfoot 6.64303 -15.8975
rtoes -3.20097
lfemur 7.83863 15.1892 -18.37
ltibia -47.4379
lfoot 19.6727 19.9245
ltoes -2.50293
366
root 1.89996 17.6245 3.50615 24.1788 -31.7755 -9.49325
lowerback 30.5469 0.0854491 -3.07364
upperback 5.83712 -1.35695 -2.53178
thorax -10.2012 -0.65316 -0.568934
lowerneck -16.7144 8.15262 9.02689
upperneck 17.2638 10.2784 -7.02829
head 9.00701 4.68763 -2.50887
rclavicle -2.06736e-014 2.8625e-014
rhumerus -43.143 36.5933 -103.96
rradius 101.105
rwrist 1.22915
rhand -20.7479 -68.349
rfingers 7.12502
rthumb 5.61779 -261.745
lclavicle -2.06736e-014 2.8625e-014
lhumerus 10.5626 1.69875 83.9986
lradius 77.2094
lwrist 76.8296
lhand -45.7955 -15.4381
lfingers 7.12502
lthumb -18.5489 13.6975
rfemur -20.7411 16.5513 6.72352
rtibia -18.3582
rfoot 6.84084 -15.8519
rtoes -3.70157
lfemur 7.86767 15.1781 -18.4795
ltibia -47.3566
lfoot 19.5502 20.0939
ltoes -2.3128
367
root 1.89515 17.6295 3.5057 23.8621 -31.9383 -9.40481
lowerback 30.8921 0.149176 -3.10512
upperback 5.76621 -1.32272 -2.64644
thorax -10.4552 -0.635482 -0.694345
lowerneck -16.6679 8.22735 9.31232
upperneck 17.541 10.3932 -7.33404
head 9.1388 4.72524 -2.64137
rclavicle 3.65764e-014 -2.70347e-014
rhumerus -42.8413 36.7763 -103.636
rradius 100.69
rwrist 0.466749
rhand -20.4493 -68.4143
rfingers 7.12502
rthumb 5.90608 -261.688
lclavicle 3.65764e-014 -2.70347e-014
lhumerus 10.1984 1.70237 83.8681
lradius 77.0775
lwrist 77.2876
lhand -45.9602 -15.8979
lfingers 7.12502
lthumb -18.7074 13.2225
rfemur -20.4283 16.7356 6.70364
rtibia -18.3811
rfoot 6.85454 -15.8154
rtoes -4.1703
lfemur 8.17486 15.1152 -18.4489
ltibia -47.2154
lfoot 19.3689 20.1839
ltoes -2.42188
368
root 1.89233 17.6333 3.50993 23.5789 -32.029 -9.43591
lowerback 31.0395 0.104649 -3.00845
upperback 5.84945 -1.36572 -2.71942
thorax -10.4352 -0.661603 -0.816206
lowerneck -16.6981 8.38372 9.43868
upperneck 17.5622 10.6357 -7.6101
head 9.19779 4.81651 -2.71789
rclavicle 6.20208e-014 9.54166e-015
rhumerus -42.5254 37.434 -103.135
rradius 100.461
rwrist -0.741286
rhand -20.1345 -68.6481
rfingers 7.12502
rthumb 6.20994 -261.463
lclavicle 6.20208e-014 9.54166e-015
lhumerus 9.59353 1.72051 83.5596
lradius 77.3172
lwrist 77.9243
lhand -45.9746 -16.7767
lfingers 7.12502
lthumb -18.7212 12.3425
rfemur -20.1063 16.8127 6.86961
rtibia -18.3002
rfoot 6.84436 -15.641
rtoes -4.56878
lfemur 8.51109 15.1004 -18.307
ltibia -47.0712
lfoot 19.2045 20.1817
ltoes -2.60668
369
root 1.88886 17.6374 3.51898 23.298 -32.1169 -9.51685
lowerback 31.0163 0.043849 -2.91012
upperback 6.0344 -1.41283 -2.7545
thorax -10.2132 -0.69235 -0.89358
lowerneck -16.8952 8.614 9.49646
upperneck 17.6389 10.9884 -7.88745
head 9.31356 4.94867 -2.76118
rclavicle -1.27222e-014 2.38542e-014
rhumerus -42.3859 38.3798 -102.456
rradius 100.519
rwrist -2.03507
rhand -19.9306 -69.1974
rfingers 7.12502
rthumb 6.40679 -260.92
lclavicle -1.27222e-014 2.38542e-014
lhumerus 8.79689 1.52065 83.173
lradius 77.9268
lwrist 78.7694
lhand -46.1283 -18.2438
lfingers 7.12502
lthumb -18.8691 10.861
rfemur -19.7817 16.8112 7.12573
rtibia -18.1465
rfoot 6.83873 -15.338
rtoes -4.88759
lfemur 8.89216 15.1703 -18.1377
ltibia -46.9378
lfoot 18.9954 20.1705
ltoes -2.4275
